<?xml version="1.0"?>
<svg xmlns="http://www.w3.org/2000/svg" xmlns:xlink="http://www.w3.org/1999/xlink" version="1.1" viewBox="0 0 44 44" enable-background="new 0 0 44 44" width="512px" height="512px" class=""><g><g>
    <path d="m22,0c-12.2,0-22,9.8-22,22s9.8,22 22,22 22-9.8 22-22-9.8-22-22-22zm0,35c-7.2,0-13-5.8-13-13s5.8-13 13-13 13,5.8 13,13-5.8,13-13,13z" data-original="#000000" class="active-path" data-old_color="#00faa7" fill="#00faa7"/>
    <path d="m22,13c-5,0-9,4-9,9s4,9 9,9 9-4 9-9-4-9-9-9zm4.6,9.8l-6,5-.1,.1c-0.2,0.1-0.3,0.1-0.5,0.1-0.3,0-0.7-0.2-0.9-0.5l-1-1.7c-0.1-0.1-0.1-0.3-0.1-0.5 0-0.3 0.1-0.5 0.3-0.7l2.1-1.8c0.5-0.4 0.5-1.1 0-1.5l-2.1-1.8c-0.2-0.2-0.3-0.4-0.3-0.7 0-0.2 0-0.4 0.1-0.5l1-1.7c0.2-0.3 0.5-0.5 0.9-0.5 0.2,0 0.3,0 0.5,0.1l.1,.1 6,5c0.2,0.2 0.4,0.5 0.4,0.8s-0.1,0.5-0.4,0.7z" data-original="#000000" class="active-path" data-old_color="#00faa7" fill="#00faa7"/>
  </g></g> </svg>
