<?xml version="1.0"?>
<svg xmlns="http://www.w3.org/2000/svg" height="512px" viewBox="-48 0 452 452.627" width="512px"><path d="m225.175781 407.128906v-4.796875h-91v4.796875c0 25.128906 20.371094 45.5 45.5 45.5 25.128907 0 45.5-20.371094 45.5-45.5zm0 0" fill="#8e8e8e"/><path d="m48.175781 317.0625c1-.082031 2.65625.269531 3.917969.269531h252.164062c.648438-.058593 1.289063-.167969 1.917969-.328125v-127.671875h-258zm0 0" fill="#8e8e8e"/><path d="m48.648438 173.332031h257.472656c-4.574219-68-60.5625-121.707031-128.734375-121.707031-68.175781 0-124.164063 53.707031-128.738281 121.707031zm0 0" fill="#8e8e8e"/><path d="m304.257812 333.332031h-252.164062c-22.292969 0-47.902344 22-51.78125 53h355.671875c-3.707031-26-24.996094-53-51.726563-53zm0 0" fill="#8e8e8e"/><path d="m209.175781 31.988281c-.007812-17.671875-14.339843-31.9960935-32.011719-31.988281-17.671874.0078125-31.996093 14.339844-31.988281 32.011719v7.398437c10.507813-2.34375 21.234375-3.542968 32-3.582031 10.765625-.019531 21.503907 1.183594 32 3.582031zm0 0" fill="#8e8e8e"/></svg>
