<svg xmlns="http://www.w3.org/2000/svg" version="1.1" xmlns:xlink="http://www.w3.org/1999/xlink" xmlns:svgjs="http://svgjs.com/svgjs" height="79.2" width="342.57216979980467"><defs id="SvgjsDefs1543"></defs><g id="SvgjsG1544" rel="mainfill" name="main_text" xmlns:name="main_text" transform="translate(81.68895437240599,-178.68500366210938)" fill="#5c5c5c"><path d="M38.22 240C40.08 240 41.26 238.76 41.63 237.83L49.94 217.36L50.56 217.36L50.56 237.83C50.56 239.07 51.49 240 52.73 240L62.04 240C63.28 240 64.21 239.07 64.21 237.83L64.21 198.74C64.21 197.50 63.28 196.57 62.04 196.57L49.01 196.57C47.15 196.57 45.97 197.81 45.60 198.74L34.74 225.11L34.12 225.11L23.26 198.74C22.89 197.81 21.71 196.57 19.85 196.57L6.82 196.57C5.58 196.57 4.65 197.50 4.65 198.74L4.65 237.83C4.65 239.07 5.58 240 6.82 240L16.13 240C17.37 240 18.30 239.07 18.30 237.83L18.30 217.36L18.92 217.36L27.30 237.83C27.67 238.76 28.85 240 30.71 240ZM97.09 231.00C90.26 231.00 85.92 226.66 85.92 218.29C85.92 209.91 90.26 205.57 97.09 205.57C103.91 205.57 108.26 209.91 108.26 218.29C108.26 226.66 103.91 231.00 97.09 231.00ZM97.09 195.33C80.65 195.33 71.65 204.33 71.65 218.29C71.65 232.25 80.65 241.24 97.09 241.24C113.53 241.24 122.52 232.25 122.52 218.29C122.52 204.33 113.53 195.33 97.09 195.33ZM139.77 198.74C139.27 197.50 138.22 196.57 136.98 196.57L127.05 196.57C125.81 196.57 124.94 197.50 125.50 198.74L142.25 237.83C142.81 239.07 143.80 240 145.04 240L157.76 239.94C159.00 239.94 160.00 239.07 160.55 237.83L177.30 198.74C177.86 197.50 176.99 196.57 175.75 196.57L165.21 196.57C163.97 196.57 162.91 197.50 162.41 198.74L151.56 226.97L150.94 226.97ZM209.44 198.74C209.44 197.50 208.51 196.57 207.27 196.57L181.83 196.57C180.59 196.57 179.66 197.50 179.66 198.74L179.66 204.95C179.66 206.19 180.59 207.12 181.83 207.12L187.73 207.12L187.73 229.45L181.83 229.45C180.59 229.45 179.66 230.38 179.66 231.62L179.66 237.83C179.66 239.07 180.59 240 181.83 240L207.27 240C208.51 240 209.44 239.07 209.44 237.83L209.44 231.62C209.44 230.38 208.51 229.45 207.27 229.45L201.37 229.45L201.37 207.12L207.27 207.12C208.51 207.12 209.44 206.19 209.44 204.95ZM236.74 226.97L244.49 237.83C245.11 238.76 246.29 240 248.21 240L259.07 240C260.62 240 261.30 238.76 260.62 237.83L245.73 217.67L259.38 198.74C260.06 197.81 259.38 196.57 257.83 196.57L247.28 196.57C245.42 196.57 244.18 197.81 243.56 198.74L236.74 208.98L236.12 208.98L229.29 198.74C228.67 197.81 227.43 196.57 225.57 196.57L215.02 196.57C213.47 196.57 212.79 197.81 213.47 198.74L227.12 217.67L212.23 237.83C211.55 238.76 212.23 240 213.78 240L224.64 240C226.56 240 227.74 238.76 228.36 237.83L236.12 226.97Z" fill="#5c5c5c" style="fill: rgb(92, 92, 92);"></path></g><g id="SvgjsG1545" rel="mainfill" name="symbol" xmlns:name="symbol_mainfill" transform="translate(-8.330960845947272,-4.4) scale(0.88)" fill="#5c5c5c"><path d="M83.283,39.851L27.044,7.382C24.243,5.765,21.591,5,19.235,5c-5.777,0.001-9.768,4.602-9.768,12.531v64.938  c0,7.93,3.991,12.531,9.768,12.531c2.356,0,5.009-0.765,7.81-2.382l56.238-32.469C92.951,54.567,92.951,45.433,83.283,39.851z   M65.308,50.965l-38.902,22.46l0,0l-5.292,3.056l5.292-4.986V29.924v-3.349v-6.111l1.672,7.076L66.98,50h0l5.292,3.055  L65.308,50.965z" fill="#5c5c5c" style="fill: rgb(92, 92, 92);"></path></g></svg>