<svg xmlns="http://www.w3.org/2000/svg" version="1.1" xmlns:xlink="http://www.w3.org/1999/xlink" xmlns:svgjs="http://svgjs.com/svgjs" height="67" width="284.61000061035156"><defs id="SvgjsDefs1215"></defs><g id="SvgjsG1216" rel="mainfill" name="main_text" xmlns:name="main_text" transform="translate(77.28000020980835,-181.26500701904297)" fill="#ffffff"><path d="M42.12 211.14C44.93 211.14 46.36 212.65 46.36 215.72L46.36 230.84C46.36 237.47 49.99 240.48 54.91 240.48C58.81 240.48 61.75 238.15 61.75 235.76C61.75 234.46 61.54 233.30 61.13 232.14L59.36 232.14C57.92 232.14 57.24 231.11 57.24 229.13L57.24 216.48C57.24 207.11 52.72 202.66 45.41 202.66C41.23 202.66 37.61 204.30 34.40 207.66C32.41 204.30 29.27 202.66 25.10 202.66C21.20 202.66 18.05 204.17 15.59 207.25L15.59 205.40C15.59 203.83 14.57 203.01 12.58 203.01C9.78 203.01 7.18 203.28 4.72 203.89L4.72 238.02C4.72 239.32 5.54 240 7.18 240L15.59 240L15.59 213.60C17.23 211.96 19.15 211.14 21.40 211.14C24.21 211.14 25.57 212.65 25.57 215.72L25.57 238.02C25.57 239.32 26.40 240 28.04 240L36.38 240L36.38 216.55C36.38 215.52 36.31 214.56 36.17 213.60C38.02 211.96 40.00 211.14 42.12 211.14ZM71.46 207.86C67.83 211.28 65.99 215.93 65.99 221.74C65.99 227.55 67.83 232.20 71.46 235.69C75.15 239.11 79.60 240.82 84.86 240.82C90.13 240.82 94.57 239.11 98.20 235.69C101.89 232.20 103.73 227.55 103.73 221.74C103.73 215.93 101.89 211.28 98.20 207.86C94.57 204.37 90.13 202.66 84.86 202.66C79.60 202.66 75.15 204.37 71.46 207.86ZM85.14 232.34C80.28 232.34 76.86 228.24 76.86 221.40C76.86 214.63 79.94 211.14 84.59 211.14C89.44 211.14 92.86 215.25 92.86 222.08C92.86 228.85 89.79 232.34 85.14 232.34ZM133.62 237.88C136.08 233.30 138.40 228.17 140.52 222.36C142.71 216.55 144.35 211.01 145.52 205.74C145.86 204.37 144.97 203.48 142.99 203.48L134.85 203.48C134.23 207.52 133.21 211.96 131.84 216.75C130.54 221.47 129.10 225.50 127.60 228.85L120.01 204.99C119.53 203.62 118.51 202.94 116.93 202.94C114.54 202.94 111.87 203.96 109.00 206.01L121.38 240L129.31 240C131.77 240 132.80 239.52 133.62 237.88ZM152.76 230.84C152.76 237.47 156.39 240.48 161.31 240.48C165.21 240.48 168.08 238.15 168.08 235.76C168.08 234.60 167.88 233.37 167.54 232.20L165.69 232.20C164.25 232.20 163.57 231.18 163.57 229.20L163.57 205.40C163.57 203.83 162.61 203.01 160.63 203.01C157.69 203.01 155.02 203.35 152.76 203.96ZM158.17 199.45C161.65 199.45 163.98 197.54 163.98 194.18C163.98 190.90 161.24 188.71 158.03 188.71C154.54 188.71 152.22 190.70 152.22 193.98C152.22 197.33 154.88 199.45 158.17 199.45ZM191.61 240.82C195.09 240.82 198.03 240.21 200.36 238.97C202.75 237.68 203.91 236.44 203.91 235.14C203.91 233.57 203.44 232.07 202.48 230.77C200.15 232.07 197.28 232.68 193.93 232.68C188.12 232.68 184.70 230.22 183.81 225.37L200.22 225.37C203.44 225.37 204.87 224.61 205.97 222.49C206.85 220.78 207.33 218.73 207.33 216.41C207.33 212.37 205.90 209.09 203.03 206.56C200.22 203.96 196.39 202.66 191.67 202.66C186.27 202.66 181.76 204.44 178.13 208.00C174.51 211.48 172.73 216.13 172.73 221.88C172.73 227.28 174.51 231.79 178.00 235.42C181.55 239.04 186.07 240.82 191.61 240.82ZM191.67 210.80C195.02 210.80 197.08 212.78 197.08 216.13C197.08 217.02 196.87 217.84 196.53 218.46L183.74 218.46C184.29 213.60 187.23 210.80 191.67 210.80Z" fill="#ffffff" style="fill: rgb(255, 255, 255);"></path></g><g id="SvgjsG1217" rel="mainfill" name="symbol" xmlns:name="symbol_mainfill" transform="translate(0,0) scale(0.67)" fill="#ffffff"><path style="fill: rgb(255, 255, 255);" d="M50,0C22.388,0,0,22.388,0,50s22.388,50,50,50s50-22.388,50-50S77.612,0,50,0z M31.25,75V25  l50.024,25L31.25,75z" fill="#ffffff"></path></g></svg>